<svg width="46" height="46" viewBox="0 0 46 46" fill="none" xmlns="http://www.w3.org/2000/svg">
<path d="M1.57164 45.9264C0.743211 45.9264 0.0716383 45.2548 0.0716373 44.4264L0.0716391 30.9264C0.0716378 30.098 0.743212 29.4264 1.57164 29.4264C2.40006 29.4264 3.07164 30.098 3.07164 30.9264L3.07164 42.9264L15.0716 42.9264C15.9001 42.9264 16.5716 43.598 16.5716 44.4264C16.5716 45.2548 15.9001 45.9264 15.0716 45.9264L1.57164 45.9264ZM45.0587 3.06066L2.6323 45.4871L0.510978 43.3657L42.9374 0.93934L45.0587 3.06066Z" fill="#1774FF"/>
<rect width="3" height="25" transform="matrix(-1 0 0 1 3 20)" fill="#1774FF"/>
<rect width="3" height="25" transform="matrix(4.37114e-08 -1 -1 -4.37114e-08 25 46)" fill="#1774FF"/>
</svg>
