<svg width="55" height="47" viewBox="0 0 55 47" fill="none" xmlns="http://www.w3.org/2000/svg">
<path d="M41.065 0.326172C34.5717 11.2149 30.9841 16.645 27.3668 16.645C23.7495 16.645 20.1619 11.2149 13.6982 0.326172C20.1619 11.2149 23.2455 16.961 21.4368 19.9777C19.6282 22.9943 12.957 23.3104 0 23.3104C13.4314 23.3104 20.1026 23.6264 21.6147 26.9591C23.0379 30.062 19.9543 35.7793 13.6982 46.2946C20.1915 35.4058 23.7791 29.9758 27.3964 29.9758C31.0137 29.9758 34.6013 35.4058 41.0946 46.2946C34.2159 34.7163 31.1916 28.9702 33.7415 26.0972C35.9949 23.5689 42.6364 23.3104 54.7928 23.3104C41.0946 23.3104 34.4234 22.9656 33.0892 19.4318C31.8735 16.2715 34.9571 10.5829 41.065 0.326172Z" fill="#FFED75"/>
</svg>
