<svg width="880" height="120" viewBox="0 0 880 120" fill="none" xmlns="http://www.w3.org/2000/svg">
<path d="M203.16 91H219.96V22.48H249.48V6.99999H173.4V22.48H203.16V91ZM254.647 49.12C254.647 74.08 274.448 92.8 300.728 92.8C327.008 92.8 346.688 75.04 346.688 49.12C346.688 22.84 327.008 5.2 300.728 5.2C274.328 5.2 254.647 23.8 254.647 49.12ZM271.448 49.12C271.448 32.56 283.568 21.28 300.728 21.28C318.128 21.28 329.888 32.56 329.888 49.12C329.888 65.32 318.128 76.72 300.728 76.72C283.688 76.72 271.448 65.32 271.448 49.12ZM375.128 34.96L427.208 91H440.768V6.99999H423.968V62.68L371.768 6.99999H358.328V91H375.128V34.96ZM498.066 49.12C498.066 32.44 509.706 20.68 526.026 20.68C538.626 20.68 548.466 26.8 553.026 36.76H569.826C564.426 17.44 547.626 5.2 526.146 5.2C500.106 5.2 481.266 23.8 481.266 49.12C481.266 74.08 499.986 92.8 525.066 92.8C537.666 92.8 548.346 88.12 556.266 79.72L557.586 91H572.706V44.08H526.266V58.12H553.266C549.906 69.76 539.946 77.2 527.106 77.2C510.186 77.2 498.066 65.68 498.066 49.12ZM582.304 49.12C582.304 74.08 602.104 92.8 628.384 92.8C654.664 92.8 674.344 75.04 674.344 49.12C674.344 22.84 654.664 5.2 628.384 5.2C601.984 5.2 582.304 23.8 582.304 49.12ZM599.104 49.12C599.104 32.56 611.224 21.28 628.384 21.28C645.784 21.28 657.544 32.56 657.544 49.12C657.544 65.32 645.784 76.72 628.384 76.72C611.344 76.72 599.104 65.32 599.104 49.12ZM685.985 91H752.705V74.92H702.785V6.99999H685.985V91ZM768.016 91H807.736C829.936 91 851.176 72.88 851.176 48.88C851.176 24.04 831.136 6.99999 807.736 6.99999H768.016V91ZM834.376 48.88C834.376 64.12 822.976 74.92 807.736 74.92H784.816V23.08H807.736C823.096 23.08 834.376 33.64 834.376 48.88Z" fill="#FFED75"/>
<rect x="-8" y="7" width="185" height="15.5" fill="#FFED75"/>
</svg>
