<svg width="85" height="80" viewBox="0 0 85 80" fill="none" xmlns="http://www.w3.org/2000/svg">
<path fill-rule="evenodd" clip-rule="evenodd" d="M84.8539 0.333024C84.7736 0.516262 84.243 1.53191 83.675 2.59019C83.1068 3.64847 81.1764 7.27845 79.3852 10.6568C75.59 17.8148 75.2052 18.5379 70.9221 26.568C69.4312 29.363 68.7148 30.7138 68.2525 31.6004C67.9979 32.0888 67.162 33.6457 66.3953 35.06C65.6283 36.4744 65.0009 37.6574 65.0009 37.6888C65.0009 37.7202 64.3632 38.9198 63.5837 40.3545C62.8043 41.7892 62.1665 42.9842 62.1665 43.0101C62.1665 43.036 61.5288 44.2349 60.7493 45.6743C59.9699 47.1137 59.3321 48.3113 59.3321 48.3352C59.3321 48.3594 58.8741 49.2329 58.3143 50.2766C57.3301 52.111 54.105 58.1873 52.8294 60.6105C52.4864 61.2618 51.4747 63.16 50.5807 64.8289C49.6869 66.4977 48.6554 68.4292 48.2886 69.1212C47.9216 69.8131 47.2834 71.012 46.8704 71.7854C46.4572 72.5587 45.8567 73.691 45.5357 74.3016C45.2148 74.9121 44.6499 75.9778 44.2804 76.6697C43.9109 77.3617 43.3626 78.3941 43.0618 78.9639L42.5151 80L42.1064 79.1859C41.8817 78.7382 41.1262 77.3148 40.4278 76.0228C39.7294 74.7308 39.158 73.6546 39.158 73.6314C39.158 73.608 38.6623 72.6669 38.0566 71.5401C37.4509 70.4132 35.4159 66.5939 33.5344 63.0527C31.6531 59.5116 29.776 55.9815 29.3634 55.2081C28.9509 54.4348 28.3687 53.3358 28.0696 52.766C27.7706 52.1961 27.1512 51.0305 26.6934 50.1758C24.7595 46.5655 24.3262 45.753 23.7731 44.6993C23.4527 44.0888 22.4987 42.2905 21.653 40.703C20.8075 39.1156 19.8507 37.3173 19.5269 36.7067C19.2031 36.0962 18.3858 34.5715 17.7106 33.3186C17.0353 32.0657 16.4829 31.0228 16.4829 31.0012C16.4829 30.9795 15.9871 30.0397 15.381 28.9129C14.1556 26.6344 6.82119 12.8377 4.81028 9.02868C4.10135 7.68547 3.10765 5.82053 2.60213 4.88437C2.09678 3.94819 1.30448 2.46631 0.841646 1.59112L0 0H42.5001H85L84.8539 0.333024ZM3.21202 2.40518C3.7072 3.37539 4.67523 5.20925 5.80998 7.32655C6.28983 8.22202 7.26619 10.0537 7.97945 11.3969C8.69288 12.7401 9.66741 14.5717 10.1451 15.4672C10.6228 16.3626 11.5403 18.0944 12.184 19.3154C12.8278 20.5365 13.8708 22.4938 14.5019 23.665C15.1329 24.8363 15.6493 25.8114 15.6493 25.8321C15.6493 25.8527 16.1822 26.8593 16.8336 28.069C17.485 29.2785 18.2823 30.7678 18.6052 31.3783C18.9283 31.9889 19.8682 33.7539 20.6937 35.3006C21.5191 36.8474 22.7939 39.2451 23.5264 40.629C24.259 42.0129 25.4124 44.1695 26.0893 45.4215C26.7664 46.6734 27.3203 47.717 27.3203 47.7407C27.3203 47.7644 27.7419 48.5718 28.2573 49.5349C30.3649 53.4734 33.7632 59.8558 34.8244 61.8686C35.4466 63.049 36.3845 64.8141 36.9083 65.7909C37.432 66.7678 38.1063 68.0333 38.4066 68.6031C39.1585 70.0301 40.2602 72.0931 41.4892 74.3756L42.5252 76.2997L43.172 75.1156C44.4266 72.8181 46.6608 68.6424 46.6608 68.595C46.6608 68.5687 47.1386 67.6605 47.7227 66.5769C48.3069 65.4934 49.7041 62.8751 50.8277 60.7586C51.9514 58.642 53.1894 56.3108 53.5787 55.5782C53.968 54.8455 55.79 51.4153 57.6275 47.9556C63.7811 36.3691 63.5757 36.7544 65.1915 33.764C65.9119 32.4303 66.5015 31.3166 66.5015 31.2889C66.5015 31.2613 67.1392 30.0636 67.9187 28.6273C68.6981 27.191 69.3359 25.9947 69.3359 25.9691C69.3359 25.9434 69.7942 25.0686 70.3544 24.025C70.9146 22.9815 72.3116 20.3626 73.4587 18.2054C74.6058 16.0481 75.9168 13.5837 76.372 12.729C79.6874 6.5045 82.174 1.78294 82.174 1.71204C82.174 1.66586 64.3183 1.62812 42.4947 1.62812H2.81537L3.21202 2.40518ZM23.375 5.84644C24.4124 6.08621 26.1017 6.96096 26.2672 7.34401C26.3329 7.49602 26.1837 7.73477 25.8501 8.0114L25.3307 8.44226L24.5996 7.94686C23.6383 7.29532 22.5942 7.04725 21.1909 7.13665C19.8225 7.22383 18.8968 7.61606 18.0939 8.44877C16.5113 10.0901 16.619 12.6715 18.3341 14.2102C19.3472 15.1192 20.4187 15.4583 21.967 15.36C23.2384 15.2792 23.9004 15.0169 24.7175 14.2699C25.2859 13.7504 25.9021 12.5231 25.7235 12.2664C25.6738 12.1952 24.7375 12.1369 23.6424 12.1369H21.6515V11.4709V10.8048H24.6756H27.6998L27.5879 11.7744C27.4112 13.3059 26.9215 14.2671 25.8197 15.2451C24.5224 16.3968 23.4157 16.7893 21.478 16.7852C20.238 16.7824 19.9145 16.7233 18.977 16.328C17.4031 15.6643 16.5957 14.971 15.8624 13.6531C15.2712 12.5909 15.233 12.4389 15.2393 11.1819C15.2453 10.0164 15.3085 9.72832 15.7263 8.96088C17.1652 6.31829 20.1535 5.1015 23.375 5.84644ZM39.6794 6.17872C41.0462 6.77669 42.0317 7.65262 42.7055 8.86808C43.1977 9.75615 43.2427 9.95582 43.2398 11.2462C43.237 12.5941 43.2092 12.7011 42.5948 13.7268C41.8268 15.0085 40.9977 15.7099 39.512 16.3348C38.5218 16.7513 38.2512 16.7987 36.8927 16.7944C35.5258 16.7901 35.2699 16.7426 34.2759 16.3082C32.2641 15.429 31.0767 14.0539 30.6322 12.0888C30.1722 10.0559 31.3674 7.72129 33.4857 6.51456C34.7329 5.80411 35.5337 5.62102 37.1784 5.6706C38.3956 5.70716 38.78 5.78531 39.6794 6.17872ZM48.4948 10.5088V15.2451H52.0795H55.6641V15.9852V16.7253H51.2458H46.8275V11.2488V5.77243H47.6612H48.4948V10.5088ZM65.2238 5.99445C67.011 6.4077 68.3948 7.40677 69.3017 8.93883C69.7 9.61169 69.7493 9.85724 69.7508 11.1748C69.7525 12.509 69.7052 12.7408 69.2708 13.5263C68.3538 15.1839 66.7789 16.2071 64.5951 16.5638C64.0511 16.6526 62.6067 16.7253 61.3856 16.7253H59.1654V11.2488V5.77243H61.7147C63.4425 5.77243 64.5733 5.84392 65.2238 5.99445ZM34.8034 7.51793C32.1096 8.76714 31.5095 12.303 33.6718 14.1851C34.672 15.0555 35.4099 15.3137 36.9072 15.3166C38.0039 15.3187 38.3857 15.2536 39.0551 14.9502C40.6229 14.2393 41.4935 12.87 41.4905 11.1192C41.4885 9.86405 40.984 8.86409 39.9421 8.05003C39.0326 7.33928 38.2482 7.10453 36.7818 7.10453C35.9158 7.10453 35.5135 7.1886 34.8034 7.51793ZM61.0411 7.19201C60.8819 7.25713 60.8327 8.21817 60.8327 11.2611V15.2451L62.7084 15.2437C64.3225 15.2425 64.7008 15.1939 65.4212 14.8961C66.3559 14.5098 67.2069 13.8214 67.6169 13.1203C67.7666 12.8644 67.9237 12.1807 67.966 11.601C68.1036 9.71974 67.2956 8.35922 65.6046 7.62494C64.868 7.30494 64.416 7.22694 62.9822 7.17247C62.0292 7.13636 61.1558 7.14509 61.0411 7.19201ZM66.168 20.9396C66.168 20.9782 66.003 21.3112 65.8014 21.6796L65.4346 22.3497H42.5461H19.6576L19.3207 21.7635C19.1354 21.4412 18.9839 21.1082 18.9839 21.0235C18.9839 20.9177 26.3564 20.8696 42.5759 20.8696C55.5516 20.8696 66.168 20.9011 66.168 20.9396ZM63.1669 26.5402C63.1669 26.5656 63.025 26.8486 62.8516 27.1692C62.368 28.063 60.9439 30.7311 60.2888 31.9704C59.2298 33.974 57.8146 36.619 57.4024 37.3648L56.998 38.097V34.0716V30.0463H52.2462C48.7462 30.0463 47.4944 30.0915 47.4944 30.2184C47.4944 30.313 46.928 34.3593 46.2356 39.2101C43.0406 61.5959 42.5414 64.8998 42.4322 64.3848C42.3717 64.0999 41.2741 56.4736 39.9931 47.4375C38.7122 38.4015 37.6216 30.7919 37.5697 30.5273L37.4755 30.0463H32.7261H27.9767L28.0237 34.0353C28.0494 36.2294 28.0217 37.9777 27.962 37.9206C27.9025 37.8636 27.2768 36.7236 26.5717 35.3874C25.8666 34.0511 24.9116 32.2528 24.4492 31.3911C23.9869 30.5294 23.2101 29.075 22.7233 28.1591L21.8378 26.494H42.5024C53.8678 26.494 63.1669 26.5147 63.1669 26.5402Z" fill="#3C3C3C"/>
</svg>
