<svg width="1920" height="1448" viewBox="0 0 1920 1448" fill="none" xmlns="http://www.w3.org/2000/svg">
<rect width="21.5769" height="384.456" rx="10" transform="matrix(0.866025 -0.5 0.866025 0.5 338.058 656.184)" fill="url(#paint0_linear_1_24)"/>
<rect width="129" height="129" rx="17" transform="matrix(0.866025 -0.5 0.866025 0.5 192.996 625.504)" fill="#1E1E1E"/>
<rect width="123" height="123" rx="10" transform="matrix(0.866025 -0.5 0.866025 0.5 198.004 623)" fill="url(#paint1_linear_1_24)"/>
<path d="M199.125 564.991L201.596 563.564L201.596 559.406L205.444 557.184C207.968 555.726 210.316 552.19 210.316 549.316C210.316 546.279 208.092 545.545 205.444 547.074L199.125 550.722L199.125 564.991ZM207.845 550.743C207.845 552.088 206.803 553.729 205.444 554.514L201.596 556.735L201.596 551.925L205.444 549.703C206.821 548.908 207.845 549.336 207.845 550.743ZM212.054 557.526L214.525 556.099L214.525 550.27L221.286 546.366L221.286 552.196L223.757 550.769L223.757 536.501L221.286 537.928L221.286 543.737L214.525 547.64L214.525 541.831L212.054 543.258L212.054 557.526ZM224.57 550.3L227.306 548.72L228.771 544.511L235.532 540.607L236.997 543.125L239.751 541.535L233.52 530.864L230.766 532.454L224.57 550.3ZM229.901 541.249L232.143 534.819L234.385 538.661L229.901 541.249ZM251.318 530.882C251.318 524.278 242.58 532.625 242.58 529.465C242.58 528.446 243.71 527.04 245.44 526.041C247.029 525.124 248.335 525.266 248.547 526.245L251.106 524.767C250.912 522.29 248.653 521.822 245.44 523.677C242.404 525.429 240.109 528.303 240.109 530.811C240.109 537.333 248.847 528.823 248.847 532.227C248.847 533.328 247.664 534.826 245.987 535.794C244.187 536.834 242.792 536.762 242.527 535.55L239.95 537.038C240.127 539.749 242.704 540.136 246.022 538.22C249.323 536.314 251.318 533.246 251.318 530.882ZM253.081 533.839L263.284 527.948L263.284 525.298L255.553 529.762L255.553 526.582L263.002 522.281L263.002 519.652L255.553 523.953L255.553 520.773L263.284 516.309L263.284 513.68L253.081 519.57L253.081 533.839ZM269.428 514.168C270.946 513.292 272.094 512.405 273.153 511.305L273.153 522.25L275.624 520.823L275.624 506.555L273.524 507.768C272.535 509.195 271.264 510.296 269.428 511.355L269.428 514.168ZM277.306 510.823C277.306 511.74 277.836 512.005 278.63 511.546C279.371 511.118 279.901 510.242 279.901 509.325C279.901 508.469 279.371 508.163 278.63 508.591C277.836 509.049 277.306 509.967 277.306 510.823ZM277.306 518.67C277.306 519.588 277.836 519.853 278.63 519.394C279.371 518.966 279.901 518.089 279.901 517.172C279.901 516.316 279.371 516.01 278.63 516.438C277.836 516.897 277.306 517.814 277.306 518.67ZM186.971 604.921L189.425 603.504L188.86 602.404C187.536 599.601 187.077 597.766 187.077 595.198C187.077 592.813 187.624 589.95 188.86 585.934L189.425 584.181L186.971 585.598L186.371 587.371C185.206 590.836 184.606 593.996 184.606 596.625C184.606 599.316 185.188 601.711 186.371 603.841L186.971 604.921ZM195.945 581.253C192.997 582.955 190.967 586.389 190.967 589.834L193.438 588.407C193.438 586.511 194.391 584.881 195.927 583.994C197.286 583.209 198.239 583.434 198.239 584.718C198.239 588.448 190.967 589.487 190.967 596.805L190.967 598.701L200.87 592.983L200.87 590.129L193.615 594.318C194.144 590.629 200.711 588.529 200.711 583.434C200.711 580.396 198.822 579.591 195.945 581.253ZM202.37 585.003C202.37 589.243 204.93 590.945 208.354 588.968C211.796 586.98 214.321 582.506 214.321 578.103C214.321 573.64 211.796 572.101 208.354 574.088C204.912 576.075 202.37 580.723 202.37 585.003ZM204.841 583.576C204.841 580.763 206.289 578.012 208.372 576.809C210.437 575.617 211.849 576.717 211.849 579.53C211.849 582.282 210.437 585.034 208.372 586.226C206.306 587.419 204.841 586.328 204.841 583.576ZM215.523 574.29C217.041 573.414 218.189 572.527 219.248 571.427L219.248 582.372L221.719 580.945L221.719 566.677L219.619 567.89C218.63 569.317 217.359 570.418 215.523 571.478L215.523 574.29ZM223.401 576.041C223.401 578.466 225.678 578.966 228.767 577.182C231.821 575.419 234.098 572.412 234.098 569.865C234.098 568.417 233.233 567.755 232.033 567.714C232.969 566.42 233.586 565.003 233.586 563.739C233.586 561.192 231.521 560.713 228.767 562.302C225.978 563.913 223.913 566.899 223.913 569.324C223.913 570.547 224.566 571.271 225.537 571.465C224.301 572.932 223.401 574.634 223.401 576.041ZM226.155 568.254C226.155 567.113 227.249 565.686 228.767 564.81C230.321 563.913 231.327 564.127 231.327 565.268C231.327 566.348 230.25 567.826 228.767 568.682C227.302 569.528 226.155 569.335 226.155 568.254ZM225.872 574.369C225.872 573.289 227.179 571.638 228.767 570.721C230.374 569.793 231.627 569.926 231.627 571.047C231.627 572.209 230.48 573.666 228.767 574.655C227.09 575.623 225.872 575.49 225.872 574.369ZM235.402 567.216L243.063 562.793L243.063 560.184L235.402 564.607L235.402 567.216ZM249.729 550.2C246.781 551.902 244.751 555.337 244.751 558.781L247.222 557.355C247.222 555.459 248.176 553.828 249.711 552.942C251.071 552.157 252.024 552.381 252.024 553.665C252.024 557.395 244.751 558.435 244.751 565.753L244.751 567.648L254.654 561.931L254.654 559.077L247.399 563.266C247.928 559.576 254.495 557.477 254.495 552.381C254.495 549.344 252.606 548.539 249.729 550.2ZM256.154 553.951C256.154 558.19 258.714 559.892 262.138 557.915C265.581 555.928 268.105 551.454 268.105 547.051C268.105 542.587 265.581 541.048 262.138 543.036C258.696 545.023 256.154 549.67 256.154 553.951ZM258.626 552.524C258.626 549.711 260.073 546.959 262.156 545.757C264.221 544.564 265.634 545.665 265.634 548.478C265.634 551.23 264.221 553.981 262.156 555.174C260.091 556.366 258.626 555.276 258.626 552.524ZM274.639 535.819C271.691 537.521 269.661 540.955 269.661 544.4L272.132 542.973C272.132 541.077 273.085 539.447 274.621 538.56C275.98 537.775 276.933 538 276.933 539.284C276.933 543.014 269.661 544.053 269.661 551.371L269.661 553.266L279.564 547.549L279.564 544.695L272.309 548.884C272.838 545.195 279.405 543.095 279.405 538C279.405 534.962 277.516 534.157 274.639 535.819ZM281.082 536.44C282.6 535.564 283.747 534.677 284.806 533.576L284.806 544.522L287.278 543.095L287.278 528.827L285.177 530.04C284.188 531.467 282.917 532.568 281.082 533.627L281.082 536.44ZM291.536 544.55L292.137 542.777C293.319 539.281 293.902 536.213 293.902 533.523C293.902 530.893 293.302 528.427 292.137 526.307L291.536 525.227L289.1 526.633L289.612 527.765C290.866 530.343 291.431 532.565 291.431 534.95C291.431 537.518 290.989 539.872 289.612 544.234L289.1 545.957L291.536 544.55Z" fill="white"/>
<path d="M604.185 819.11L606.657 817.683L606.657 813.525L610.505 811.303C613.029 809.846 615.377 806.31 615.377 803.436C615.377 800.398 613.153 799.665 610.505 801.193L604.185 804.842L604.185 819.11ZM612.906 804.862C612.906 806.208 611.864 807.849 610.505 808.633L606.657 810.855L606.657 806.045L610.505 803.823C611.882 803.028 612.906 803.456 612.906 804.862ZM617.114 811.646L619.586 810.219L619.586 804.389L626.346 800.486L626.346 806.315L628.818 804.889L628.818 790.62L626.346 792.047L626.346 797.856L619.586 801.76L619.586 795.951L617.114 797.377L617.114 811.646ZM629.631 804.419L632.367 802.84L633.832 798.63L640.593 794.727L642.058 797.244L644.812 795.654L638.581 784.984L635.827 786.574L629.631 804.419ZM634.962 795.369L637.204 788.938L639.446 792.78L634.962 795.369ZM656.379 785.002C656.379 778.397 647.641 786.744 647.641 783.585C647.641 782.566 648.771 781.159 650.501 780.161C652.089 779.243 653.396 779.386 653.607 780.364L656.167 778.887C655.973 776.41 653.713 775.941 650.501 777.796C647.464 779.549 645.17 782.423 645.17 784.93C645.17 791.453 653.907 782.943 653.907 786.347C653.907 787.448 652.725 788.946 651.048 789.914C649.247 790.953 647.853 790.882 647.588 789.669L645.011 791.157C645.187 793.868 647.764 794.256 651.083 792.34C654.384 790.434 656.379 787.366 656.379 785.002ZM658.142 787.958L668.345 782.068L668.345 779.418L660.613 783.882L660.613 780.702L668.063 776.401L668.063 773.772L660.613 778.072L660.613 774.893L668.345 770.429L668.345 767.799L658.142 773.69L658.142 787.958ZM679.82 760.869C676.872 762.571 674.842 766.005 674.842 769.45L677.313 768.023C677.313 766.127 678.267 764.497 679.802 763.61C681.162 762.825 682.115 763.05 682.115 764.334C682.115 768.064 674.842 769.103 674.842 776.421L674.842 778.316L684.745 772.599L684.745 769.745L677.49 773.934C678.019 770.245 684.586 768.145 684.586 763.05C684.586 760.012 682.697 759.207 679.82 760.869ZM686.245 762.703C686.245 763.62 686.775 763.885 687.569 763.427C688.311 762.999 688.84 762.122 688.84 761.205C688.84 760.349 688.311 760.043 687.569 760.471C686.775 760.93 686.245 761.847 686.245 762.703ZM686.245 770.551C686.245 771.468 686.775 771.733 687.569 771.274C688.311 770.846 688.84 769.97 688.84 769.052C688.84 768.196 688.311 767.891 687.569 768.319C686.775 768.777 686.245 769.695 686.245 770.551Z" fill="#FFED75"/>
<path d="M592.17 858.961L594.623 857.544L594.058 856.444C592.735 853.641 592.276 851.807 592.276 849.238C592.276 846.853 592.823 843.99 594.058 839.974L594.623 838.221L592.17 839.638L591.569 841.411C590.404 844.876 589.804 848.036 589.804 850.665C589.804 853.356 590.387 855.751 591.569 857.881L592.17 858.961ZM601.143 835.293C598.195 836.995 596.165 840.429 596.165 843.874L598.637 842.447C598.637 840.551 599.59 838.921 601.126 838.034C602.485 837.249 603.438 837.474 603.438 838.758C603.438 842.488 596.165 843.527 596.165 850.845L596.165 852.741L606.068 847.023L606.068 844.169L598.813 848.358C599.343 844.669 605.909 842.569 605.909 837.474C605.909 834.437 604.021 833.631 601.143 835.293ZM607.569 839.043C607.569 843.283 610.128 844.985 613.553 843.008C616.995 841.02 619.519 836.546 619.519 832.144C619.519 827.68 616.995 826.141 613.553 828.128C610.11 830.115 607.569 834.763 607.569 839.043ZM610.04 837.616C610.04 834.804 611.487 832.052 613.57 830.849C615.636 829.657 617.048 830.757 617.048 833.57C617.048 836.322 615.636 839.074 613.57 840.266C611.505 841.459 610.04 840.368 610.04 837.616ZM626.053 820.911C623.105 822.613 621.075 826.048 621.075 829.492L623.546 828.065C623.546 826.17 624.5 824.539 626.035 823.653C627.395 822.868 628.348 823.092 628.348 824.376C628.348 828.106 621.075 829.146 621.075 836.463L621.075 838.359L630.978 832.641L630.978 829.788L623.723 833.977C624.252 830.287 630.819 828.188 630.819 823.092C630.819 820.055 628.93 819.25 626.053 820.911ZM632.496 821.533C634.014 820.656 635.161 819.77 636.221 818.669L636.221 829.615L638.692 828.188L638.692 813.92L636.591 815.132C635.603 816.559 634.332 817.66 632.496 818.72L632.496 821.533ZM640.325 821.415L647.986 816.992L647.986 814.383L640.325 818.806L640.325 821.415ZM654.652 804.399C651.704 806.101 649.674 809.536 649.674 812.981L652.145 811.554C652.145 809.658 653.098 808.028 654.634 807.141C655.993 806.356 656.947 806.58 656.947 807.865C656.947 811.595 649.674 812.634 649.674 819.952L649.674 821.847L659.577 816.13L659.577 813.276L652.322 817.465C652.851 813.776 659.418 811.676 659.418 806.58C659.418 803.543 657.529 802.738 654.652 804.399ZM661.077 808.15C661.077 812.39 663.637 814.092 667.061 812.115C670.503 810.127 673.028 805.653 673.028 801.25C673.028 796.786 670.503 795.248 667.061 797.235C663.619 799.222 661.077 803.87 661.077 808.15ZM663.548 806.723C663.548 803.91 664.996 801.159 667.079 799.956C669.144 798.764 670.556 799.864 670.556 802.677C670.556 805.429 669.144 808.181 667.079 809.373C665.013 810.565 663.548 809.475 663.548 806.723ZM679.561 790.018C676.614 791.72 674.583 795.154 674.583 798.599L677.055 797.172C677.055 795.277 678.008 793.646 679.544 792.759C680.903 791.975 681.856 792.199 681.856 793.483C681.856 797.213 674.583 798.253 674.583 805.57L674.583 807.466L684.486 801.748L684.486 798.895L677.231 803.083C677.761 799.394 684.328 797.295 684.328 792.199C684.328 789.162 682.439 788.357 679.561 790.018ZM691.335 783.22C688.387 784.922 686.357 788.357 686.357 791.801L688.829 790.375C688.829 788.479 689.782 786.848 691.318 785.962C692.677 785.177 693.63 785.401 693.63 786.685C693.63 790.415 686.357 791.455 686.357 798.772L686.357 800.668L696.26 794.951L696.26 792.097L689.005 796.286C689.535 792.596 696.101 790.497 696.101 785.401C696.101 782.364 694.213 781.559 691.335 783.22ZM700.338 796.51L700.938 794.737C702.121 791.241 702.703 788.173 702.703 785.483C702.703 782.853 702.103 780.387 700.938 778.267L700.338 777.187L697.902 778.593L698.414 779.725C699.667 782.303 700.232 784.525 700.232 786.91C700.232 789.478 699.791 791.832 698.414 796.194L697.902 797.916L700.338 796.51Z" fill="white"/>
<path d="M1034.15 572.13L1036.62 570.703L1036.62 566.545L1040.47 564.323C1042.99 562.866 1045.34 559.33 1045.34 556.455C1045.34 553.418 1043.12 552.685 1040.47 554.213L1034.15 557.862L1034.15 572.13ZM1042.87 557.882C1042.87 559.228 1041.83 560.868 1040.47 561.653L1036.62 563.875L1036.62 559.065L1040.47 556.843C1041.85 556.048 1042.87 556.476 1042.87 557.882ZM1047.08 564.666L1049.55 563.239L1049.55 557.409L1056.31 553.506L1056.31 559.335L1058.78 557.909L1058.78 543.64L1056.31 545.067L1056.31 550.876L1049.55 554.78L1049.55 548.971L1047.08 550.397L1047.08 564.666ZM1059.59 557.439L1062.33 555.859L1063.8 551.65L1070.56 547.747L1072.02 550.264L1074.78 548.674L1068.54 538.004L1065.79 539.594L1059.59 557.439ZM1064.93 548.389L1067.17 541.958L1069.41 545.8L1064.93 548.389ZM1086.34 538.022C1086.34 531.417 1077.6 539.764 1077.6 536.605C1077.6 535.586 1078.73 534.179 1080.46 533.181C1082.05 532.263 1083.36 532.406 1083.57 533.384L1086.13 531.907C1085.94 529.43 1083.68 528.961 1080.46 530.816C1077.43 532.569 1075.13 535.443 1075.13 537.95C1075.13 544.473 1083.87 535.963 1083.87 539.367C1083.87 540.467 1082.69 541.966 1081.01 542.934C1079.21 543.973 1077.82 543.902 1077.55 542.689L1074.97 544.177C1075.15 546.888 1077.73 547.275 1081.05 545.359C1084.35 543.454 1086.34 540.386 1086.34 538.022ZM1088.11 540.978L1098.31 535.087L1098.31 532.438L1090.58 536.902L1090.58 533.722L1098.03 529.421L1098.03 526.792L1090.58 531.092L1090.58 527.913L1098.31 523.449L1098.31 520.819L1088.11 526.71L1088.11 540.978ZM1110.83 516.447L1108.11 521.114L1109.11 522.225L1110.22 521.583C1111.58 520.798 1112.43 521.124 1112.43 522.429C1112.43 523.632 1111.44 525.079 1110.1 525.853C1108.46 526.801 1107.28 526.179 1107.28 524.345L1104.81 525.772C1104.81 529.054 1107.12 530.307 1110.08 528.595C1112.89 526.974 1114.9 523.815 1114.9 520.982C1114.9 518.21 1113.12 518.098 1111.23 518.882L1114.39 513.919L1114.39 511.534L1105.48 516.681L1105.48 519.535L1110.83 516.447ZM1116.28 515.683C1116.28 516.6 1116.81 516.865 1117.6 516.407C1118.34 515.979 1118.87 515.102 1118.87 514.185C1118.87 513.329 1118.34 513.023 1117.6 513.451C1116.81 513.91 1116.28 514.827 1116.28 515.683ZM1116.28 523.531C1116.28 524.448 1116.81 524.713 1117.6 524.254C1118.34 523.826 1118.87 522.95 1118.87 522.033C1118.87 521.176 1118.34 520.871 1117.6 521.299C1116.81 521.757 1116.28 522.675 1116.28 523.531ZM1019.81 613.325L1022.26 611.908L1021.69 610.807C1020.37 608.005 1019.91 606.17 1019.91 603.602C1019.91 601.217 1020.46 598.353 1021.69 594.338L1022.26 592.585L1019.81 594.001L1019.21 595.775C1018.04 599.24 1017.44 602.399 1017.44 605.029C1017.44 607.719 1018.02 610.114 1019.21 612.244L1019.81 613.325ZM1028.78 589.656C1025.83 591.358 1023.8 594.793 1023.8 598.237L1026.27 596.811C1026.27 594.915 1027.23 593.284 1028.76 592.398C1030.12 591.613 1031.07 591.837 1031.07 593.121C1031.07 596.851 1023.8 597.891 1023.8 605.208L1023.8 607.104L1033.7 601.387L1033.7 598.533L1026.45 602.722C1026.98 599.032 1033.55 596.933 1033.55 591.837C1033.55 588.8 1031.66 587.995 1028.78 589.656ZM1035.2 593.407C1035.2 597.646 1037.76 599.348 1041.19 597.371C1044.63 595.384 1047.16 590.91 1047.16 586.507C1047.16 582.043 1044.63 580.504 1041.19 582.492C1037.75 584.479 1035.2 589.126 1035.2 593.407ZM1037.68 591.98C1037.68 589.167 1039.12 586.415 1041.21 585.213C1043.27 584.02 1044.68 585.121 1044.68 587.934C1044.68 590.686 1043.27 593.437 1041.21 594.63C1039.14 595.822 1037.68 594.732 1037.68 591.98ZM1053.69 575.275C1050.74 576.977 1048.71 580.411 1048.71 583.856L1051.18 582.429C1051.18 580.533 1052.14 578.903 1053.67 578.016C1055.03 577.231 1055.98 577.456 1055.98 578.74C1055.98 582.47 1048.71 583.509 1048.71 590.827L1048.71 592.722L1058.61 587.005L1058.61 584.151L1051.36 588.34C1051.89 584.651 1058.46 582.551 1058.46 577.456C1058.46 574.418 1056.57 573.613 1053.69 575.275ZM1066.5 571.035L1063.79 575.703L1064.79 576.814L1065.9 576.171C1067.26 575.387 1068.11 575.713 1068.11 577.017C1068.11 578.22 1067.12 579.667 1065.78 580.442C1064.14 581.39 1062.96 580.768 1062.96 578.933L1060.49 580.36C1060.49 583.642 1062.8 584.895 1065.76 583.183C1068.57 581.563 1070.58 578.403 1070.58 575.57C1070.58 572.798 1068.8 572.686 1066.91 573.471L1070.07 568.507L1070.07 566.123L1061.16 571.269L1061.16 574.123L1066.5 571.035ZM1072.1 573.39L1079.76 568.967L1079.76 566.358L1072.1 570.781L1072.1 573.39ZM1086.43 556.374C1083.48 558.076 1081.45 561.511 1081.45 564.956L1083.92 563.529C1083.92 561.633 1084.87 560.003 1086.41 559.116C1087.77 558.331 1088.72 558.555 1088.72 559.839C1088.72 563.57 1081.45 564.609 1081.45 571.927L1081.45 573.822L1091.35 568.105L1091.35 565.251L1084.1 569.44C1084.62 565.751 1091.19 563.651 1091.19 558.555C1091.19 555.518 1089.3 554.713 1086.43 556.374ZM1092.85 560.125C1092.85 564.365 1095.41 566.067 1098.83 564.089C1102.28 562.102 1104.8 557.628 1104.8 553.225C1104.8 548.761 1102.28 547.222 1098.83 549.21C1095.39 551.197 1092.85 555.844 1092.85 560.125ZM1095.32 558.698C1095.32 555.885 1096.77 553.134 1098.85 551.931C1100.92 550.739 1102.33 551.839 1102.33 554.652C1102.33 557.404 1100.92 560.156 1098.85 561.348C1096.79 562.54 1095.32 561.45 1095.32 558.698ZM1111.34 541.993C1108.39 543.695 1106.36 547.129 1106.36 550.574L1108.83 549.147C1108.83 547.252 1109.78 545.621 1111.32 544.734C1112.68 543.95 1113.63 544.174 1113.63 545.458C1113.63 549.188 1106.36 550.228 1106.36 557.545L1106.36 559.441L1116.26 553.723L1116.26 550.87L1109 555.058C1109.53 551.369 1116.1 549.27 1116.1 544.174C1116.1 541.137 1114.21 540.332 1111.34 541.993ZM1117.92 550.011L1124.63 546.138L1124.63 548.89L1127.1 547.463L1127.1 544.711L1128.99 543.621L1128.99 540.767L1127.1 541.857L1127.1 533.195L1124.63 534.621L1117.92 547.585L1117.92 550.011ZM1121.23 545.251L1124.63 538.596L1124.63 543.284L1121.23 545.251ZM1132.7 548.147L1133.3 546.373C1134.48 542.877 1135.06 539.81 1135.06 537.119C1135.06 534.49 1134.46 532.023 1133.3 529.904L1132.7 528.823L1130.26 530.23L1130.77 531.361C1132.03 533.939 1132.59 536.161 1132.59 538.546C1132.59 541.114 1132.15 543.469 1130.77 547.831L1130.26 549.553L1132.7 548.147Z" fill="white"/>
<rect width="25.8495" height="551.874" rx="11.9802" transform="matrix(0.866025 -0.5 0.866025 0.5 1174.15 655.857)" fill="url(#paint2_linear_1_24)"/>
<path d="M1504.66 849.413L1507.13 847.986L1507.13 843.828L1510.98 841.606C1513.5 840.149 1515.85 836.612 1515.85 833.738C1515.85 830.701 1513.62 829.967 1510.98 831.496L1504.66 835.145L1504.66 849.413ZM1513.38 835.165C1513.38 836.51 1512.34 838.151 1510.98 838.936L1507.13 841.158L1507.13 836.347L1510.98 834.125C1512.35 833.33 1513.38 833.758 1513.38 835.165ZM1517.59 841.948L1520.06 840.521L1520.06 834.692L1526.82 830.788L1526.82 836.618L1529.29 835.191L1529.29 820.923L1526.82 822.35L1526.82 828.159L1520.06 832.062L1520.06 826.253L1517.59 827.68L1517.59 841.948ZM1530.1 834.722L1532.84 833.142L1534.3 828.933L1541.06 825.03L1542.53 827.547L1545.28 825.957L1539.05 815.286L1536.3 816.876L1530.1 834.722ZM1535.43 825.672L1537.67 819.241L1539.92 823.083L1535.43 825.672ZM1556.85 815.304C1556.85 808.7 1548.11 817.047 1548.11 813.887C1548.11 812.868 1549.24 811.462 1550.97 810.463C1552.56 809.546 1553.87 809.689 1554.08 810.667L1556.64 809.189C1556.44 806.713 1554.18 806.244 1550.97 808.099C1547.94 809.852 1545.64 812.726 1545.64 815.233C1545.64 821.755 1554.38 813.245 1554.38 816.649C1554.38 817.75 1553.2 819.248 1551.52 820.216C1549.72 821.256 1548.32 821.185 1548.06 819.972L1545.48 821.46C1545.66 824.171 1548.24 824.558 1551.55 822.642C1554.86 820.736 1556.85 817.669 1556.85 815.304ZM1558.61 818.261L1568.82 812.37L1568.82 809.72L1561.08 814.184L1561.08 811.004L1568.53 806.704L1568.53 804.074L1561.08 808.375L1561.08 805.195L1568.82 800.731L1568.82 798.102L1558.61 803.993L1558.61 818.261ZM1575.31 805.867L1582.02 801.995L1582.02 804.746L1584.49 803.319L1584.49 800.568L1586.38 799.477L1586.38 796.624L1584.49 797.714L1584.49 789.051L1582.02 790.478L1575.31 803.442L1575.31 805.867ZM1578.61 801.108L1582.02 794.453L1582.02 799.141L1578.61 801.108ZM1587.77 792.399C1587.77 793.316 1588.3 793.581 1589.09 793.122C1589.83 792.694 1590.36 791.818 1590.36 790.9C1590.36 790.044 1589.83 789.739 1589.09 790.167C1588.3 790.625 1587.77 791.542 1587.77 792.399ZM1587.77 800.246C1587.77 801.163 1588.3 801.428 1589.09 800.97C1589.83 800.542 1590.36 799.665 1590.36 798.748C1590.36 797.892 1589.83 797.586 1589.09 798.014C1588.3 798.473 1587.77 799.39 1587.77 800.246ZM1490.59 890.448L1493.04 889.031L1492.48 887.931C1491.15 885.128 1490.7 883.293 1490.7 880.725C1490.7 878.34 1491.24 875.476 1492.48 871.461L1493.04 869.708L1490.59 871.125L1489.99 872.898C1488.82 876.363 1488.22 879.523 1488.22 882.152C1488.22 884.843 1488.81 887.238 1489.99 889.368L1490.59 890.448ZM1499.56 866.78C1496.62 868.482 1494.59 871.916 1494.59 875.361L1497.06 873.934C1497.06 872.038 1498.01 870.408 1499.55 869.521C1500.9 868.736 1501.86 868.961 1501.86 870.245C1501.86 873.975 1494.59 875.014 1494.59 882.332L1494.59 884.227L1504.49 878.51L1504.49 875.656L1497.23 879.845C1497.76 876.156 1504.33 874.056 1504.33 868.961C1504.33 865.923 1502.44 865.118 1499.56 866.78ZM1505.99 870.53C1505.99 874.77 1508.55 876.472 1511.97 874.495C1515.41 872.507 1517.94 868.033 1517.94 863.63C1517.94 859.167 1515.41 857.628 1511.97 859.615C1508.53 861.602 1505.99 866.25 1505.99 870.53ZM1508.46 869.103C1508.46 866.29 1509.91 863.539 1511.99 862.336C1514.06 861.144 1515.47 862.244 1515.47 865.057C1515.47 867.809 1514.06 870.561 1511.99 871.753C1509.92 872.945 1508.46 871.855 1508.46 869.103ZM1524.47 852.398C1521.52 854.1 1519.49 857.534 1519.49 860.979L1521.97 859.552C1521.97 857.657 1522.92 856.026 1524.46 855.139C1525.81 854.355 1526.77 854.579 1526.77 855.863C1526.77 859.593 1519.49 860.633 1519.49 867.95L1519.49 869.846L1529.4 864.128L1529.4 861.275L1522.14 865.463C1522.67 861.774 1529.24 859.675 1529.24 854.579C1529.24 851.542 1527.35 850.737 1524.47 852.398ZM1531.06 860.416L1537.77 856.543L1537.77 859.295L1540.24 857.868L1540.24 855.116L1542.13 854.026L1542.13 851.172L1540.24 852.263L1540.24 843.6L1537.77 845.027L1531.06 857.99L1531.06 860.416ZM1534.36 855.656L1537.77 849.001L1537.77 853.689L1534.36 855.656ZM1543.66 850.066L1551.32 845.643L1551.32 843.034L1543.66 847.457L1543.66 850.066ZM1557.98 833.05C1555.04 834.752 1553.01 838.186 1553.01 841.631L1555.48 840.204C1555.48 838.309 1556.43 836.678 1557.97 835.791C1559.33 835.007 1560.28 835.231 1560.28 836.515C1560.28 840.245 1553.01 841.285 1553.01 848.602L1553.01 850.498L1562.91 844.78L1562.91 841.927L1555.65 846.115C1556.18 842.426 1562.75 840.327 1562.75 835.231C1562.75 832.194 1560.86 831.389 1557.98 833.05ZM1564.41 836.8C1564.41 841.04 1566.97 842.742 1570.39 840.765C1573.84 838.778 1576.36 834.303 1576.36 829.901C1576.36 825.437 1573.84 823.898 1570.39 825.885C1566.95 827.873 1564.41 832.52 1564.41 836.8ZM1566.88 835.374C1566.88 832.561 1568.33 829.809 1570.41 828.606C1572.48 827.414 1573.89 828.515 1573.89 831.328C1573.89 834.079 1572.48 836.831 1570.41 838.023C1568.35 839.216 1566.88 838.125 1566.88 835.374ZM1582.89 818.668C1579.95 820.37 1577.92 823.805 1577.92 827.25L1580.39 825.823C1580.39 823.927 1581.34 822.296 1582.88 821.41C1584.24 820.625 1585.19 820.849 1585.19 822.133C1585.19 825.863 1577.92 826.903 1577.92 834.221L1577.92 836.116L1587.82 830.399L1587.82 827.545L1580.56 831.734C1581.09 828.044 1587.66 825.945 1587.66 820.849C1587.66 817.812 1585.77 817.007 1582.89 818.668ZM1594.97 826.577C1597.72 824.987 1599.79 821.675 1599.79 818.801C1599.79 816.069 1597.92 815.539 1594.79 817.343L1592.53 818.648L1592.64 816.202L1598.9 812.584L1598.9 809.73L1590.48 814.592L1590.18 820.676L1591.35 821.512L1594.83 819.504C1596.35 818.628 1597.32 818.882 1597.32 820.268C1597.32 821.573 1596.36 823.04 1594.95 823.856C1593.31 824.804 1592.16 824.263 1592.16 822.572L1589.69 823.998C1589.69 827.158 1591.99 828.299 1594.97 826.577ZM1603.91 825.021L1604.51 823.248C1605.69 819.752 1606.28 816.684 1606.28 813.994C1606.28 811.364 1605.68 808.898 1604.51 806.778L1603.91 805.698L1601.48 807.104L1601.99 808.236C1603.24 810.814 1603.81 813.036 1603.81 815.421C1603.81 817.989 1603.36 820.343 1601.99 824.705L1601.48 826.427L1603.91 825.021Z" fill="white"/>
<rect width="21.5769" height="439.627" rx="10" transform="matrix(0.866025 0.5 0.866025 -0.5 751.772 841.134)" fill="url(#paint3_linear_1_24)"/>
<g filter="url(#filter0_d_1_24)">
<rect width="129" height="129" rx="17" transform="matrix(0.866025 -0.5 0.866025 0.5 611.004 876.556)" fill="#0F53B8"/>
</g>
<rect width="123" height="123" rx="10" transform="matrix(0.866025 -0.5 0.866025 0.5 616.005 873.556)" fill="#1774FF"/>
<rect width="129" height="129" rx="17" transform="matrix(0.866025 -0.5 0.866025 0.5 1028 624)" fill="#1E1E1E"/>
<rect width="123" height="123" rx="10" transform="matrix(0.866025 -0.5 0.866025 0.5 1033.2 621)" fill="#141414"/>
<path d="M1104.6 639.516C1115.41 645.756 1131.05 646.086 1141.13 640.266C1151.26 634.416 1151 625.686 1139.78 619.206C1128.4 612.636 1113.33 612.516 1103.2 618.366C1093.07 624.216 1093.69 633.216 1104.6 639.516ZM1111.88 635.316C1104.71 631.176 1104.08 625.896 1110.22 622.356C1116.29 618.846 1125.34 619.266 1132.51 623.406C1139.52 627.456 1140.3 632.706 1134.22 636.216C1128.14 639.726 1118.89 639.366 1111.88 635.316ZM1151.12 600.001L1151.01 609.181L1158.29 609.961L1161.56 608.071C1165.56 605.761 1170.13 605.521 1173.46 607.441C1176.53 609.211 1175.85 612.181 1171.9 614.461C1167.07 617.251 1160.26 617.341 1155.58 614.641L1148.31 618.841C1156.68 623.671 1170.08 623.551 1178.81 618.511C1187.07 613.741 1187.9 607.381 1180.68 603.211C1173.62 599.131 1165.46 600.481 1159.12 603.241L1160.42 593.251L1154.34 589.741L1128.1 604.891L1135.37 609.091L1151.12 600.001Z" fill="#202020"/>
<rect width="129" height="129" rx="17" transform="matrix(0.866025 -0.5 0.866025 0.5 1502 906.5)" fill="#1E1E1E"/>
<rect width="123" height="123" rx="10" transform="matrix(0.866025 -0.5 0.866025 0.5 1507 903.5)" fill="#141414"/>
<path d="M1578.38 881.709C1567.58 887.949 1567 896.979 1577.09 902.799C1587.22 908.649 1602.34 908.499 1613.56 902.019C1624.94 895.449 1625.15 886.749 1615.02 880.899C1604.88 875.049 1589.3 875.409 1578.38 881.709ZM1585.66 885.909C1592.83 881.769 1601.97 881.409 1608.11 884.949C1614.19 888.459 1613.46 893.679 1606.29 897.819C1599.27 901.869 1590.18 902.319 1584.1 898.809C1578.02 895.299 1578.64 889.959 1585.66 885.909ZM1607.02 911.084L1626.77 922.484L1619.75 926.534L1627.03 930.734L1634.04 926.684L1639.6 929.894L1646.88 925.694L1641.32 922.484L1663.4 909.734L1656.13 905.534L1613.21 907.514L1607.02 911.084ZM1624.01 912.494L1645.99 911.384L1634.04 918.284L1624.01 912.494Z" fill="#202020"/>
<path d="M271.98 639.411C282.788 645.651 298.428 645.981 308.508 640.161C318.641 634.311 318.381 625.581 307.157 619.101C295.778 612.531 280.709 612.411 270.577 618.261C260.444 624.111 261.068 633.111 271.98 639.411ZM279.254 635.211C272.083 631.071 271.46 625.791 277.591 622.251C283.671 618.741 292.712 619.161 299.883 623.301C306.898 627.351 307.677 632.601 301.598 636.111C295.518 639.621 286.269 639.261 279.254 635.211ZM302.748 612.467C307.217 609.887 310.023 607.607 311.893 605.087L339.797 621.197L347.071 616.997L310.698 595.997L304.515 599.567C303.787 602.507 300.981 605.207 295.577 608.327L302.748 612.467Z" fill="#202020"/>
<path d="M687.932 851.603C677.124 857.843 676.553 866.873 686.633 872.693C696.766 878.543 711.886 878.393 723.11 871.913C734.49 865.343 734.698 856.643 724.565 850.793C714.433 844.943 698.844 845.303 687.932 851.603ZM695.207 855.803C702.378 851.663 711.523 851.303 717.654 854.843C723.734 858.353 723.006 863.573 715.836 867.713C708.821 871.763 699.728 872.213 693.648 868.703C687.569 865.193 688.192 859.853 695.207 855.803ZM761.361 872.037C752.684 867.027 740.94 866.907 732.159 871.977L739.433 876.177C744.266 873.387 749.826 873.417 754.346 876.027C758.347 878.337 759.179 881.097 755.905 882.987C746.396 888.477 733.042 871.467 714.388 882.237L709.556 885.027L738.706 901.857L745.981 897.657L724.624 885.327C734.809 881.247 749.826 894.897 762.816 887.397C770.558 882.927 769.831 876.927 761.361 872.037Z" fill="white"/>
<defs>
<filter id="filter0_d_1_24" x="515.628" y="717.036" width="414.186" height="327.042" filterUnits="userSpaceOnUse" color-interpolation-filters="sRGB">
<feFlood flood-opacity="0" result="BackgroundImageFix"/>
<feColorMatrix in="SourceAlpha" type="matrix" values="0 0 0 0 0 0 0 0 0 0 0 0 0 0 0 0 0 0 127 0" result="hardAlpha"/>
<feMorphology radius="4" operator="dilate" in="SourceAlpha" result="effect1_dropShadow_1_24"/>
<feOffset dy="4"/>
<feGaussianBlur stdDeviation="50"/>
<feComposite in2="hardAlpha" operator="out"/>
<feColorMatrix type="matrix" values="0 0 0 0 0.0901961 0 0 0 0 0.454902 0 0 0 0 1 0 0 0 0.7 0"/>
<feBlend mode="normal" in2="BackgroundImageFix" result="effect1_dropShadow_1_24"/>
<feBlend mode="normal" in="SourceGraphic" in2="effect1_dropShadow_1_24" result="shape"/>
</filter>
<linearGradient id="paint0_linear_1_24" x1="10.7884" y1="0" x2="10.7884" y2="384.456" gradientUnits="userSpaceOnUse">
<stop stop-color="#181818"/>
<stop offset="1" stop-color="#181818" stop-opacity="0"/>
</linearGradient>
<linearGradient id="paint1_linear_1_24" x1="61.5" y1="0" x2="61.5" y2="123" gradientUnits="userSpaceOnUse">
<stop stop-color="#141414"/>
<stop offset="1" stop-color="#0F0F0F"/>
</linearGradient>
<linearGradient id="paint2_linear_1_24" x1="12.9248" y1="0" x2="12.9248" y2="551.874" gradientUnits="userSpaceOnUse">
<stop stop-color="#181818"/>
<stop offset="1" stop-color="#181818" stop-opacity="0"/>
</linearGradient>
<linearGradient id="paint3_linear_1_24" x1="10.7884" y1="0" x2="10.7884" y2="439.627" gradientUnits="userSpaceOnUse">
<stop stop-color="#1774FF"/>
<stop offset="1" stop-color="#1774FF" stop-opacity="0"/>
</linearGradient>
</defs>
</svg>
